<?xml version="1.0" encoding="UTF-8" standalone="no"?>
<svg xmlns="http://www.w3.org/2000/svg"
     width="10.000mm" height="10.000mm"
     viewBox="0 0 10.000 10.000">
  <path d="M 2.237 3.526 L 2.263 3.500 L 2.289 3.474 L 2.289 3.447 L 2.316 3.421 L 2.316 3.395 L 2.316 3.368 L 2.316 3.342 L 2.316 3.316 L 2.316 3.289 L 2.316 3.263 L 2.316 3.237 L 2.316 3.211 L 2.316 3.184 L 2.316 3.158 L 2.316 3.132 L 2.316 3.105 L 2.316 3.079 L 2.316 3.053 L 2.316 3.026 L 2.316 3.000 L 2.316 2.974 L 2.316 2.947 L 2.316 2.921 L 2.316 2.895 L 2.316 2.868 L 2.316 2.842 L 2.316 2.816 L 2.316 2.789 L 2.316 2.763 L 2.316 2.737 L 2.316 2.711 L 2.316 2.684 L 2.316 2.658 L 2.316 2.632 L 2.316 2.605 L 2.316 2.579 L 2.316 2.553 L 2.316 2.526 L 2.316 2.500 L 2.316 2.474 L 2.316 2.447 L 2.316 2.421 L 2.316 2.395 L 2.316 2.368 L 2.316 2.342 L 2.316 2.316 L 2.316 2.289 L 2.316 2.263 L 2.316 2.237 L 2.316 2.211 L 2.316 2.184 L 2.316 2.158 L 2.289 2.132 L 2.289 2.105 L 2.289 2.079 L 2.263 2.053 L 2.263 2.026 L 2.263 2.000 L 2.237 1.974 L 2.237 1.947 L 2.237 1.921 L 2.211 1.895 L 2.211 1.868 L 2.211 1.842 L 2.184 1.816 L 2.184 1.789 L 2.158 1.763 L 2.132 1.763 L 2.105 1.737 L 2.079 1.737 L 2.053 1.737 L 2.026 1.711 L 2.000 1.711 L 1.974 1.711 L 1.947 1.684 L 1.921 1.684 L 1.895 1.684 L 1.868 1.658 L 1.842 1.658 L 1.816 1.658 L 1.789 1.658 L 1.763 1.632 L 1.737 1.632 L 1.711 1.632 L 1.684 1.605 L 1.658 1.605 L 1.632 1.605 L 1.605 1.605 L 1.579 1.579 L 1.553 1.579 L 1.526 1.579 L 1.500 1.553 L 1.474 1.553 L 1.447 1.553 L 1.421 1.553 L 1.395 1.526 L 1.368 1.526 L 1.342 1.526 L 1.316 1.500 L 1.316 1.474 L 1.316 1.447 L 1.316 1.421 L 1.289 1.395 L 1.289 1.368 L 1.263 1.342 L 1.263 1.316 L 1.289 1.289 L 1.289 1.263 L 1.289 1.237 L 1.289 1.211 L 1.289 1.184 L 1.289 1.158 L 1.289 1.132 L 1.289 1.105 L 1.316 1.079 L 1.316 1.053 L 1.316 1.026 L 1.316 1.000 L 1.316 0.974 L 1.316 0.947 L 1.316 0.921 L 1.316 0.895 L 1.342 0.868 L 1.342 0.842 L 1.342 0.816 L 1.342 0.789 L 1.342 0.763 L 1.342 0.737 L 1.368 0.711 L 1.395 0.684 L 1.421 0.658 L 1.421 0.632 L 1.447 0.605 L 1.474 0.579 L 1.500 0.553 L 1.526 0.526 L 1.526 0.500 L 1.553 0.474 L 1.579 0.447 L 1.605 0.421 L 1.632 0.395 L 1.658 0.368 L 1.684 0.342 L 1.711 0.316 L 1.737 0.289 L 1.763 0.263" fill="none" stroke="black" stroke-width="0.300" stroke-linecap="round" stroke-linejoin="round" /><path d="M 4.184 3.895 L 4.211 3.921 L 4.237 3.947 L 4.237 3.974 L 4.263 4.000 L 4.289 4.026 L 4.316 4.053 L 4.342 4.079 L 4.368 4.105 L 4.395 4.132 L 4.421 4.158" fill="none" stroke="black" stroke-width="0.300" stroke-linecap="round" stroke-linejoin="round" /><path d="M 0.474 3.579 L 0.447 3.553 L 0.447 3.526 L 0.421 3.500 L 0.421 3.474 L 0.421 3.447 L 0.395 3.421 L 0.395 3.395 L 0.395 3.368 L 0.368 3.342 L 0.368 3.316 L 0.368 3.289 L 0.342 3.263 L 0.342 3.237 L 0.342 3.211 L 0.316 3.184 L 0.316 3.158 L 0.316 3.132 L 0.316 3.105 L 0.316 3.079 L 0.316 3.053 L 0.316 3.026 L 0.316 3.000 L 0.316 2.974 L 0.316 2.947 L 0.316 2.921 L 0.316 2.895 L 0.316 2.868 L 0.316 2.842 L 0.316 2.816 L 0.316 2.789 L 0.316 2.763 L 0.316 2.737 L 0.316 2.711 L 0.316 2.684 L 0.316 2.658 L 0.316 2.632 L 0.316 2.605 L 0.316 2.579 L 0.316 2.553 L 0.316 2.526 L 0.316 2.500 L 0.316 2.474 L 0.316 2.447 L 0.316 2.421 L 0.316 2.395 L 0.316 2.368 L 0.316 2.342 L 0.316 2.316 L 0.316 2.289 L 0.316 2.263 L 0.342 2.237 L 0.342 2.211 L 0.342 2.184 L 0.342 2.158 L 0.342 2.132 L 0.342 2.105 L 0.342 2.079 L 0.368 2.053 L 0.368 2.026 L 0.368 2.000 L 0.395 1.974 L 0.421 1.947 L 0.447 1.921 L 0.474 1.895 L 0.500 1.868 L 0.526 1.842 L 0.553 1.816 L 0.579 1.789 L 0.605 1.763 L 0.632 1.737 L 0.658 1.711 L 0.684 1.711 L 0.711 1.711 L 0.737 1.711 L 0.763 1.711 L 0.789 1.711 L 0.816 1.711 L 0.842 1.711 L 0.868 1.684 L 0.895 1.684 L 0.921 1.684 L 0.947 1.684 L 0.974 1.684 L 1.000 1.684 L 1.026 1.684 L 1.053 1.684 L 1.079 1.658 L 1.105 1.658 L 1.132 1.632 L 1.158 1.605 L 1.184 1.605 L 1.211 1.579 L 1.237 1.553 L 1.263 1.553 L 1.289 1.526" fill="none" stroke="black" stroke-width="0.300" stroke-linecap="round" stroke-linejoin="round" /><path d="M 4.237 0.632 L 4.237 0.658 L 4.237 0.684 L 4.211 0.711 L 4.211 0.737 L 4.211 0.763 L 4.184 0.789 L 4.184 0.816 L 4.184 0.842 L 4.158 0.868 L 4.158 0.895 L 4.132 0.921 L 4.132 0.947 L 4.132 0.974 L 4.132 1.000 L 4.132 1.026 L 4.132 1.053 L 4.132 1.079 L 4.132 1.105 L 4.132 1.132 L 4.132 1.158 L 4.105 1.184 L 4.105 1.211 L 4.105 1.237 L 4.105 1.263 L 4.105 1.289 L 4.105 1.316 L 4.105 1.342 L 4.105 1.368 L 4.105 1.395 L 4.105 1.421 L 4.079 1.447 L 4.079 1.474 L 4.079 1.500 L 4.079 1.526 L 4.079 1.553 L 4.079 1.579 L 4.079 1.605 L 4.053 1.632 L 4.026 1.632 L 4.000 1.658 L 3.974 1.658 L 3.947 1.684 L 3.921 1.684 L 3.895 1.711 L 3.868 1.737 L 3.842 1.763 L 3.842 1.789 L 3.842 1.816 L 3.816 1.842 L 3.816 1.868 L 3.789 1.895 L 3.789 1.921 L 3.763 1.947 L 3.763 1.974 L 3.763 2.000 L 3.737 2.026 L 3.737 2.053 L 3.711 2.079 L 3.711 2.105 L 3.684 2.132 L 3.684 2.158 L 3.684 2.184 L 3.658 2.211 L 3.658 2.237 L 3.632 2.263 L 3.632 2.289 L 3.605 2.316 L 3.605 2.342 L 3.579 2.368 L 3.579 2.395 L 3.553 2.421 L 3.526 2.447 L 3.526 2.474 L 3.500 2.500 L 3.474 2.526 L 3.474 2.553 L 3.447 2.579 L 3.421 2.605 L 3.421 2.632 L 3.395 2.658 L 3.368 2.684 L 3.368 2.711 L 3.342 2.737 L 3.342 2.763 L 3.316 2.789 L 3.289 2.816 L 3.263 2.842 L 3.237 2.868 L 3.237 2.895 L 3.211 2.921 L 3.184 2.947 L 3.184 2.974 L 3.184 3.000 L 3.158 3.026 L 3.158 3.053 L 3.158 3.079 L 3.158 3.105 L 3.158 3.132 L 3.158 3.158 L 3.132 3.184 L 3.132 3.211 L 3.132 3.237 L 3.132 3.263 L 3.132 3.289 L 3.105 3.316 L 3.105 3.342 L 3.105 3.368 L 3.105 3.395 L 3.105 3.421 L 3.105 3.447" fill="none" stroke="black" stroke-width="0.300" stroke-linecap="round" stroke-linejoin="round" /><path d="M 5.079 6.579 L 5.105 6.579 L 5.132 6.579 L 5.158 6.579 L 5.184 6.579 L 5.211 6.579 L 5.237 6.579 L 5.263 6.579 L 5.289 6.579 L 5.316 6.579 L 5.342 6.553 L 5.368 6.553 L 5.395 6.553 L 5.421 6.553 L 5.447 6.553 L 5.474 6.553 L 5.500 6.553 L 5.526 6.553 L 5.553 6.526 L 5.579 6.500 L 5.605 6.500 L 5.632 6.500 L 5.658 6.474 L 5.684 6.447 L 5.711 6.447 L 5.737 6.421 L 5.763 6.421 L 5.789 6.421 L 5.816 6.395 L 5.842 6.368 L 5.842 6.342 L 5.868 6.316 L 5.868 6.289 L 5.868 6.263 L 5.895 6.237 L 5.921 6.211 L 5.921 6.184 L 5.921 6.158 L 5.947 6.132 L 5.947 6.105 L 5.974 6.079 L 5.974 6.053 L 6.000 6.026 L 6.000 6.000 L 6.026 5.974 L 6.026 5.947 L 6.026 5.921 L 6.053 5.895 L 6.079 5.868 L 6.079 5.842 L 6.079 5.816 L 6.079 5.789 L 6.079 5.763 L 6.079 5.737 L 6.105 5.711 L 6.105 5.684 L 6.105 5.658 L 6.105 5.632 L 6.105 5.605 L 6.105 5.579 L 6.105 5.553 L 6.105 5.526 L 6.105 5.500 L 6.105 5.474 L 6.132 5.447 L 6.132 5.421 L 6.132 5.395 L 6.132 5.368 L 6.132 5.342 L 6.132 5.316 L 6.132 5.289 L 6.132 5.263 L 6.132 5.237 L 6.132 5.211 L 6.132 5.184 L 6.132 5.158 L 6.132 5.132 L 6.132 5.105 L 6.132 5.079 L 6.132 5.053 L 6.132 5.026 L 6.158 5.000 L 6.158 4.974 L 6.158 4.947 L 6.158 4.921 L 6.158 4.895 L 6.158 4.868 L 6.158 4.842 L 6.158 4.816 L 6.158 4.789 L 6.158 4.763 L 6.158 4.737 L 6.158 4.711 L 6.158 4.684 L 6.158 4.658 L 6.158 4.632 L 6.158 4.605 L 6.158 4.579 L 6.158 4.553 L 6.158 4.526 L 6.158 4.500 L 6.158 4.474 L 6.158 4.447 L 6.158 4.421 L 6.158 4.395 L 6.158 4.368 L 6.158 4.342 L 6.158 4.316 L 6.158 4.289 L 6.158 4.263 L 6.184 4.237 L 6.184 4.211 L 6.184 4.184 L 6.184 4.158 L 6.184 4.132 L 6.184 4.105 L 6.184 4.079 L 6.184 4.053 L 6.184 4.026 L 6.184 4.000 L 6.184 3.974 L 6.184 3.947 L 6.184 3.921 L 6.184 3.895 L 6.184 3.868 L 6.184 3.842 L 6.184 3.816 L 6.184 3.789 L 6.184 3.763 L 6.211 3.737 L 6.211 3.711 L 6.211 3.684 L 6.211 3.658 L 6.211 3.632 L 6.211 3.605 L 6.211 3.579 L 6.211 3.553 L 6.211 3.526 L 6.211 3.500 L 6.211 3.474 L 6.211 3.447 L 6.211 3.421 L 6.211 3.395 L 6.211 3.368 L 6.211 3.342 L 6.211 3.316 L 6.211 3.289 L 6.211 3.263 L 6.211 3.237 L 6.237 3.211 L 6.237 3.184 L 6.237 3.158 L 6.237 3.132 L 6.237 3.105 L 6.237 3.079 L 6.237 3.053 L 6.237 3.026 L 6.237 3.000 L 6.237 2.974 L 6.237 2.947 L 6.237 2.921 L 6.237 2.895 L 6.237 2.868 L 6.237 2.842 L 6.237 2.816 L 6.237 2.789 L 6.237 2.763 L 6.237 2.737 L 6.237 2.711 L 6.237 2.684 L 6.237 2.658 L 6.237 2.632 L 6.237 2.605 L 6.237 2.579 L 6.237 2.553 L 6.237 2.526 L 6.237 2.500 L 6.237 2.474 L 6.237 2.447 L 6.237 2.421 L 6.237 2.395 L 6.237 2.368 L 6.237 2.342 L 6.237 2.316 L 6.237 2.289 L 6.237 2.263 L 6.237 2.237 L 6.211 2.211 L 6.211 2.184 L 6.211 2.158 L 6.211 2.132 L 6.211 2.105 L 6.211 2.079 L 6.184 2.053 L 6.184 2.026 L 6.184 2.000 L 6.184 1.974 L 6.184 1.947 L 6.158 1.921 L 6.158 1.895 L 6.132 1.868 L 6.105 1.842 L 6.079 1.816 L 6.053 1.789 L 6.026 1.763 L 6.000 1.763 L 5.974 1.737 L 5.947 1.737 L 5.921 1.737 L 5.895 1.711 L 5.868 1.711 L 5.842 1.711 L 5.816 1.711 L 5.789 1.711 L 5.763 1.711 L 5.737 1.711 L 5.711 1.711 L 5.684 1.711 L 5.658 1.684 L 5.632 1.684 L 5.605 1.684 L 5.579 1.684 L 5.553 1.684 L 5.526 1.684 L 5.500 1.684 L 5.474 1.684 L 5.447 1.684 L 5.421 1.684 L 5.395 1.684 L 5.368 1.684 L 5.342 1.684 L 5.316 1.684 L 5.289 1.684 L 5.263 1.684 L 5.237 1.684 L 5.211 1.684 L 5.184 1.684 L 5.158 1.684 L 5.132 1.684 L 5.105 1.684 L 5.079 1.684 L 5.053 1.684 L 5.026 1.684 L 5.000 1.684 L 4.974 1.684 L 4.947 1.684 L 4.921 1.684 L 4.895 1.684 L 4.868 1.684 L 4.842 1.684 L 4.816 1.684 L 4.789 1.684 L 4.763 1.684 L 4.737 1.684 L 4.711 1.684 L 4.684 1.684 L 4.658 1.684 L 4.632 1.684 L 4.605 1.684 L 4.579 1.684 L 4.553 1.658 L 4.526 1.658 L 4.500 1.658 L 4.474 1.658 L 4.447 1.658 L 4.421 1.658 L 4.395 1.658 L 4.368 1.658 L 4.342 1.658 L 4.316 1.658 L 4.289 1.658 L 4.263 1.658 L 4.237 1.658 L 4.211 1.658 L 4.184 1.658 L 4.158 1.658 L 4.132 1.658 L 4.105 1.632" fill="none" stroke="black" stroke-width="0.300" stroke-linecap="round" stroke-linejoin="round" /><path d="M 0.289 5.684 L 0.289 5.658 L 0.289 5.632 L 0.289 5.605 L 0.289 5.579 L 0.289 5.553 L 0.289 5.526 L 0.289 5.500 L 0.289 5.474 L 0.289 5.447 L 0.289 5.421 L 0.289 5.395 L 0.289 5.368 L 0.289 5.342 L 0.289 5.316 L 0.289 5.289 L 0.289 5.263 L 0.289 5.237 L 0.289 5.211 L 0.289 5.184 L 0.289 5.158 L 0.289 5.132 L 0.289 5.105 L 0.289 5.079 L 0.289 5.053 L 0.289 5.026 L 0.289 5.000 L 0.289 4.974 L 0.289 4.947 L 0.289 4.921 L 0.289 4.895 L 0.289 4.868 L 0.289 4.842 L 0.289 4.816 L 0.289 4.789 L 0.289 4.763 L 0.289 4.737 L 0.289 4.711 L 0.289 4.684 L 0.289 4.658 L 0.289 4.632 L 0.289 4.605 L 0.289 4.579 L 0.289 4.553 L 0.289 4.526 L 0.289 4.500 L 0.289 4.474 L 0.289 4.447 L 0.289 4.421 L 0.289 4.395 L 0.289 4.368 L 0.289 4.342 L 0.289 4.316 L 0.289 4.289 L 0.289 4.263 L 0.289 4.237 L 0.316 4.211 L 0.316 4.184 L 0.316 4.158 L 0.316 4.132 L 0.316 4.105 L 0.342 4.079 L 0.342 4.053 L 0.342 4.026 L 0.342 4.000 L 0.368 3.974 L 0.368 3.947 L 0.368 3.921 L 0.368 3.895 L 0.395 3.868 L 0.395 3.842 L 0.395 3.816 L 0.395 3.789 L 0.421 3.763 L 0.421 3.737 L 0.421 3.711 L 0.421 3.684 L 0.421 3.658 L 0.447 3.632 L 0.447 3.605" fill="none" stroke="black" stroke-width="0.300" stroke-linecap="round" stroke-linejoin="round" /><path d="M 2.316 4.447 L 2.316 4.421 L 2.316 4.395 L 2.316 4.368 L 2.316 4.342 L 2.316 4.316 L 2.316 4.289 L 2.316 4.263 L 2.316 4.237 L 2.316 4.211 L 2.316 4.184 L 2.316 4.158 L 2.316 4.132 L 2.316 4.105 L 2.316 4.079 L 2.316 4.053 L 2.316 4.026 L 2.316 4.000 L 2.316 3.974 L 2.316 3.947 L 2.316 3.921 L 2.316 3.895 L 2.316 3.868 L 2.316 3.842 L 2.316 3.816 L 2.316 3.789 L 2.316 3.763 L 2.316 3.737 L 2.316 3.711 L 2.316 3.684 L 2.316 3.658 L 2.316 3.632 L 2.316 3.605 L 2.289 3.579 L 2.263 3.553" fill="none" stroke="black" stroke-width="0.300" stroke-linecap="round" stroke-linejoin="round" /><path d="M 1.553 5.868 L 1.526 5.868 L 1.500 5.868 L 1.474 5.868 L 1.447 5.868 L 1.421 5.868 L 1.395 5.868 L 1.368 5.868 L 1.342 5.868 L 1.316 5.868 L 1.289 5.868 L 1.263 5.868 L 1.237 5.868 L 1.211 5.868 L 1.184 5.868 L 1.158 5.868 L 1.132 5.868 L 1.105 5.868 L 1.079 5.868 L 1.053 5.895 L 1.026 5.895 L 1.000 5.895 L 0.974 5.895 L 0.947 5.895 L 0.921 5.895 L 0.895 5.895 L 0.868 5.895 L 0.842 5.921 L 0.816 5.921 L 0.789 5.921 L 0.763 5.921 L 0.737 5.921 L 0.711 5.921 L 0.684 5.921 L 0.658 5.921 L 0.632 5.947 L 0.605 5.947 L 0.579 5.947 L 0.553 5.947 L 0.526 5.947 L 0.500 5.947 L 0.474 5.947 L 0.447 5.974 L 0.421 5.974 L 0.395 5.974 L 0.368 5.947 L 0.342 5.921 L 0.316 5.895 L 0.289 5.868 L 0.289 5.842 L 0.289 5.816 L 0.289 5.789 L 0.289 5.763 L 0.289 5.737 L 0.289 5.711" fill="none" stroke="black" stroke-width="0.300" stroke-linecap="round" stroke-linejoin="round" /><path d="M 2.316 4.947 L 2.316 4.921 L 2.316 4.895 L 2.316 4.868 L 2.316 4.842 L 2.316 4.816 L 2.316 4.789 L 2.316 4.763 L 2.316 4.737 L 2.316 4.711 L 2.316 4.684 L 2.316 4.658 L 2.316 4.632 L 2.316 4.605 L 2.316 4.579 L 2.316 4.553 L 2.316 4.526 L 2.316 4.500 L 2.316 4.474" fill="none" stroke="black" stroke-width="0.300" stroke-linecap="round" stroke-linejoin="round" /><path d="M 1.921 5.921 L 1.895 5.921 L 1.868 5.921 L 1.842 5.895 L 1.816 5.895 L 1.789 5.895 L 1.763 5.895 L 1.737 5.868 L 1.711 5.868 L 1.684 5.868 L 1.658 5.868 L 1.632 5.868 L 1.605 5.868 L 1.579 5.868" fill="none" stroke="black" stroke-width="0.300" stroke-linecap="round" stroke-linejoin="round" /><path d="M 2.237 5.605 L 2.263 5.579 L 2.263 5.553 L 2.263 5.526 L 2.263 5.500 L 2.263 5.474 L 2.289 5.447 L 2.289 5.421 L 2.289 5.395 L 2.289 5.368 L 2.316 5.342 L 2.316 5.316 L 2.316 5.289 L 2.316 5.263" fill="none" stroke="black" stroke-width="0.300" stroke-linecap="round" stroke-linejoin="round" /><path d="M 1.316 3.632 L 1.289 3.632 L 1.263 3.632 L 1.237 3.632 L 1.211 3.632 L 1.184 3.632 L 1.158 3.632 L 1.132 3.632 L 1.105 3.632 L 1.079 3.632 L 1.053 3.632 L 1.026 3.632 L 1.000 3.632 L 0.974 3.632 L 0.947 3.632 L 0.921 3.632 L 0.895 3.632 L 0.868 3.632 L 0.842 3.632 L 0.816 3.605 L 0.789 3.605 L 0.763 3.605 L 0.737 3.579" fill="none" stroke="black" stroke-width="0.300" stroke-linecap="round" stroke-linejoin="round" />
</svg>
